# xmcd CD database file
#
# Track frame offsets:
#	150
#	20202
#	43372
#	63867
#	86995
#	108372
#	136347
#	155650
#	179395
#	202445
#
# Disc length: 2935 seconds
#
# Revision: 1
# Processed by: cddbd v1.5.1PL0 Copyright (c) Steve Scherf et al.
# Submitted via: CDex 1.51
#
DISCID=9a0b750a
DTITLE=Puchi Colon - Salsa Praise
DYEAR=2001
DGENRE=Salsa
TTITLE0=Tomorrow
TTITLE1=On My Knees
TTITLE2=All That I Need
TTITLE3=Morning Star
TTITLE4=The Love Of Jesus
TTITLE5=Grace Enough
TTITLE6=Stubborn Love
TTITLE7=All That I Need
TTITLE8=Jesus Will Return
TTITLE9=At The Cross
EXTD=YEAR: 2001
EXTT0=
EXTT1=
EXTT2=
EXTT3=
EXTT4=
EXTT5=
EXTT6=
EXTT7=
EXTT8=
EXTT9=
PLAYORDER=
